PathFileType	3	(X/Y/Z)	F:\ViconData\AntennenMessung\Messung1\Session1\ID10.trc
DataRate	CameraRate	NumFrames	NumMarkers	Units	OrigDataRate	OrigDataStartFrame	OrigNumFrames
120.0	120.0	4	70	mm	120.0	1095	1251	
Frame#	Time	Ashort			Along			Atop			A4			Bshort			Blong			Btop			B4			Cshort			Clong			Ctop			C4			Dshort			Dlong			Dtop			D4			Eshort			Elong			Etop			E4			Fshort			Flong			Ftop			F4			Gshort			Glong			Gtop			G4			Hshort			Hlong			Htop			H4			I1			I2			I3			I4			I5			WandAshort			WandAlong			WandAtop			WandA4			WandA15			WandBshort			WandB4			WandB5			WandBtop			WandBlong			WandCshort			WandClong			WandCtop			WandC4			WandC5			Acenter			Aantenna			Bcenter			Bantenna			Ccenter			Cantenna			Dcenter			Dantenna			Ecenter			Eantenna			Fcenter			Fantenna			Gcenter			Gantenna			Hcenter			Hantenna			Icenter			Iantenna			
		X1	Y1	Z1	X2	Y2	Z2	X3	Y3	Z3	X4	Y4	Z4	X5	Y5	Z5	X6	Y6	Z6	X7	Y7	Z7	X8	Y8	Z8	X9	Y9	Z9	X10	Y10	Z10	X11	Y11	Z11	X12	Y12	Z12	X13	Y13	Z13	X14	Y14	Z14	X15	Y15	Z15	X16	Y16	Z16	X17	Y17	Z17	X18	Y18	Z18	X19	Y19	Z19	X20	Y20	Z20	X21	Y21	Z21	X22	Y22	Z22	X23	Y23	Z23	X24	Y24	Z24	X25	Y25	Z25	X26	Y26	Z26	X27	Y27	Z27	X28	Y28	Z28	X29	Y29	Z29	X30	Y30	Z30	X31	Y31	Z31	X32	Y32	Z32	X33	Y33	Z33	X34	Y34	Z34	X35	Y35	Z35	X36	Y36	Z36	X37	Y37	Z37	X38	Y38	Z38	X39	Y39	Z39	X40	Y40	Z40	X41	Y41	Z41	X42	Y42	Z42	X43	Y43	Z43	X44	Y44	Z44	X45	Y45	Z45	X46	Y46	Z46	X47	Y47	Z47	X48	Y48	Z48	X49	Y49	Z49	X50	Y50	Z50	X51	Y51	Z51	X52	Y52	Z52	X53	Y53	Z53	X54	Y54	Z54	X55	Y55	Z55	X56	Y56	Z56	X57	Y57	Z57	X58	Y58	Z58	X59	Y59	Z59	X60	Y60	Z60	X61	Y61	Z61	X62	Y62	Z62	X63	Y63	Z63	X64	Y64	Z64	X65	Y65	Z65	X66	Y66	Z66	X67	Y67	Z67	X68	Y68	Z68	X69	Y69	Z69	X70	Y70	Z70	
1095	9.1166667	-1038.2294	214.5211	-1644.2059	-1109.3235	203.87218	-1599.355	-1063.8264	172.7121	-1625.3915	-1054.1813	262.20892	-1634.9448	-1352.9559	234.96951	1003.8318	-1281.3365	227.16711	1052.3977	-1322.8696	194.16508	1020.8347	-1284.6677	287.91656	1052.8344	813.99957	187.6644	1209.724	892.63367	179.25201	1178.7203	844.50891	145.41528	1198.2999	860.62518	292.61157	1167.4978	1115.7343	209.78938	-1401.7096	1056.2107	194.13969	-1460.3257	1095.0276	162.39471	-1423.9358	1069.8596	238.6982	-1425.8518	-1204.526	1685.9578	-1563.2595	-1129.1356	1688.2947	-1606.1013	-1173.1436	1724.4467	-1581.9775	-1134.0232	1581.0355	-1603.8567	-1239.7196	1699.3251	1119.4889	-1309.3824	1698.8629	1071.915	-1270.4852	1736.42	1096.8922	-1244.6271	1594.1213	1106.5505	988.86255	1664.26	1162.3062	957.14264	1700.5692	1183.8271	922.88666	1662.0072	1215.017	939.78925	1659.3962	1159.9613	999.07532	1668.5447	-1579.453	1058.87	1670.1771	-1518.6353	1024.9926	1708.0247	-1551.1256	1059.2361	1672.1759	-1585.5546	31.590525	196.34785	-944.50922	115.4963	203.99405	-932.36823	72.555656	160.914	-939.51746	72.659721	200.63853	-971.1991	61.678352	198.6662	-891.99292																																														-1069.015	209.90981	-1624.7841	-1074.4022	248.53081	-1624.1536	-1321.6578	231.55981	1025.0553	-1320.4026	270.29364	1029.4271	847.8786	184.03996	1196.3662	851.26398	222.84415	1194.4236	1088.7316	202.68994	-1428.3005	1082.7451	241.00365	-1432.4507	-1171.8855	1686.9695	-1581.8079	-1170.577	1647.9918	-1581.6316	-1271.0552	1699.1171	1098.0892	-1271.6508	1660.1417	1099.3398	953.07275	1705.2279	1186.5884	972.72815	1733.3706	1168.0776	1026.4955	1669.2932	-1551.5636	1028.0076	1630.325	-1552.0043	68.956276	199.75291	-939.10242	65.357597	238.5843	-938.6875
1096	9.125	-1038.2017	214.35463	-1644.2664	-1109.3164	203.92178	-1599.3767	-1063.6792	173.16751	-1625.6366	-1054.2096	262.21759	-1634.9539	-1352.979	235.11258	1003.8372	-1281.3816	227.14552	1052.3879	-1322.8539	194.13867	1020.8412	-1284.7788	287.87622	1052.9305	814.03522	187.63847	1209.6758	892.2002	178.63901	1179.2587	844.52423	145.50699	1198.2303	860.6698	292.67276	1167.4469	1115.731	209.77826	-1401.72	1056.2449	194.19228	-1460.3717	1095.0463	162.37469	-1423.9452	1069.8267	238.65836	-1425.844	-1204.5189	1685.9562	-1563.2502	-1129.0896	1688.4265	-1606.4764	-1173.1434	1724.4391	-1581.9807	-1134.0193	1581.0228	-1603.8438	-1239.7231	1699.3188	1119.4749	-1309.4087	1698.9078	1071.9366	-1270.4862	1736.4071	1096.895	-1244.6219	1594.0623	1106.4434	988.90845	1664.3098	1162.3051	957.43933	1700.3265	1183.7811	922.68622	1662.1588	1215.1041	939.7489	1659.3687	1159.9827	999.08191	1668.5385	-1579.446	1058.8533	1670.1581	-1518.6447	1024.9905	1708.0212	-1551.1211	1059.2532	1672.1439	-1585.4509	31.492081	196.45047	-944.50079	115.59309	204.01466	-932.40253	72.711975	161.70569	-940.14825	72.658493	200.63673	-971.19507	61.674328	198.69212	-892.01074																																														-1068.6808	209.88319	-1625.027	-1073.9442	248.52106	-1624.3855	-1321.5874	231.61945	1025.124	-1320.2789	270.34549	1029.5492	848.20203	183.7047	1196.3801	851.93549	222.48012	1194.5018	1088.7717	202.71463	-1428.301	1082.8114	241.03375	-1432.4387	-1171.8973	1687.0244	-1581.9445	-1170.5992	1648.046	-1581.9069	-1271.0781	1699.1339	1098.085	-1271.697	1660.1587	1099.3292	952.9552	1705.4586	1186.8413	972.65778	1733.6432	1168.4446	1026.4912	1669.281	-1551.5645	1028.0007	1630.3127	-1552.0104	69.129761	199.83566	-939.08643	65.483269	238.64977	-938.00562
1097	9.1333333	-1038.2225	214.49504	-1644.2148	-1109.3137	203.97939	-1599.403	-1063.8146	172.68221	-1625.4009	-1054.1875	262.22717	-1634.9535	-1353.043	234.94638	1003.8304	-1281.3677	227.13898	1052.4415	-1322.9148	194.03282	1020.9473	-1284.6444	287.92255	1052.8217	814.04565	187.70499	1209.6384	892.07501	178.47156	1179.3405	844.51263	145.39311	1198.3207	860.68018	292.64767	1167.4897	1115.7301	209.80296	-1401.712	1056.2701	194.15486	-1460.296	1095.0734	162.31242	-1423.8754	1069.8442	238.65582	-1425.8494	-1204.5162	1685.9612	-1563.2577	-1129.1349	1688.2762	-1606.0493	-1173.146	1724.4447	-1581.9767	-1133.7531	1581.006	-1603.7063	-1239.769	1699.4015	1119.5121	-1309.4064	1698.9304	1071.9393	-1270.505	1736.4486	1096.9039	-1244.5905	1594.2174	1106.6278	988.86902	1664.2799	1162.3329	957.32397	1700.455	1183.7427	922.68433	1662.0391	1215.0071	939.79926	1659.4186	1159.9692	999.06018	1668.5559	-1579.4683	1058.7274	1669.9838	-1518.6598	1024.9913	1708.0322	-1551.125	1059.2513	1672.1482	-1585.4535	31.360641	196.61436	-944.49438	115.53384	204.28287	-932.66266	72.596085	161.85437	-940.33459	72.648071	200.61525	-971.2085	61.68956	198.68945	-891.9964																																														-1068.9691	209.94707	-1624.8339	-1074.3125	248.57484	-1624.2461	-1321.6578	231.52769	1025.1161	-1320.3593	270.26736	1029.4231	848.27417	183.65462	1196.3478	852.08502	222.4165	1194.3492	1088.7734	202.70882	-1428.2714	1082.7986	241.0222	-1432.4409	-1171.8842	1686.9634	-1581.7817	-1170.5721	1647.986	-1581.5791	-1271.0835	1699.1896	1098.1196	-1271.6886	1660.215	1099.3915	953.07111	1705.3318	1186.6289	972.81445	1733.4607	1168.1908	1026.4049	1669.2102	-1551.6005	1027.8239	1630.2389	-1552.0778	68.959084	200.03972	-939.20935	65.262825	238.84732	-938.06573
1098	9.1416667	-1038.2499	214.50099	-1644.2181	-1109.2961	203.95241	-1599.4292	-1063.8389	172.7263	-1625.4076	-1054.234	262.21927	-1634.9667	-1352.9443	235.08362	1003.7742	-1281.288	227.17937	1052.3329	-1322.8499	194.11169	1020.8853	-1284.5825	287.92145	1052.7915	813.9483	187.80713	1209.6388	892.55945	179.22409	1178.8062	844.64355	145.31749	1198.3922	860.64655	292.62598	1167.6492	1115.7035	209.54478	-1401.5638	1056.2419	194.16522	-1460.3123	1095.019	162.22531	-1423.8975	1069.8773	238.73633	-1425.8457	-1204.525	1685.9608	-1563.2467	-1129.1495	1688.2484	-1606.0381	-1173.1384	1724.4543	-1581.9778	-1133.7579	1581.0068	-1603.6895	-1239.7549	1699.3765	1119.4922	-1309.3794	1698.8801	1071.9259	-1270.4862	1736.4183	1096.9027	-1244.782	1593.719	1106.7286	988.88763	1664.2969	1162.2941	957.42273	1700.3331	1183.7843	922.69861	1662.1617	1215.0996	939.73364	1659.3755	1159.9417	999.07306	1668.5452	-1579.4491	1058.8627	1670.1604	-1518.6268	1024.9939	1708.0312	-1551.1288	1059.2538	1672.1478	-1585.459	31.537209	196.39801	-944.48907	115.50536	204.03995	-932.41754	72.56115	161.8343	-940.39783	72.635551	200.62639	-971.19568	61.678913	198.74422	-891.99036																																														-1069.0006	209.93524	-1624.8322	-1074.359	248.56078	-1624.2349	-1321.5391	231.61937	1025.0563	-1320.1853	270.35709	1029.3641	848.04248	184.08459	1196.2664	851.44373	222.87772	1194.1393	1088.7882	202.58321	-1428.1562	1082.8696	240.91866	-1432.2017	-1171.8857	1686.9513	-1581.7762	-1170.584	1647.9735	-1581.5669	-1271.0476	1699.1533	1098.1133	-1271.6348	1660.1783	1099.3795	952.961	1705.4429	1186.8314	972.66406	1733.6219	1168.4269	1026.484	1669.2855	-1551.5646	1027.9828	1630.3169	-1552.0029	68.921379	199.80032	-939.11456	65.201653	238.60037	-937.80316
